<svg width="13" height="23" viewBox="0 0 13 23" fill="none" xmlns="http://www.w3.org/2000/svg">
<path d="M0.426472 22.4262C0.159805 22.0929 0.0181373 21.7262 0.00147059 21.3262C-0.0151961 20.9262 0.126472 20.5762 0.426472 20.2762L9.22647 11.4762L0.376471 2.62619C0.109804 2.35952 -0.0151961 2.00119 0.00147059 1.55119C0.0181373 1.10119 0.159805 0.742857 0.426472 0.47619C0.759805 0.142857 1.11814 -0.0154762 1.50147 0.00119048C1.8848 0.0178571 2.22647 0.17619 2.52647 0.47619L12.4765 10.4262C12.6431 10.5929 12.7598 10.7595 12.8265 10.9262C12.8931 11.0929 12.9265 11.2762 12.9265 11.4762C12.9265 11.6762 12.8931 11.8595 12.8265 12.0262C12.7598 12.1929 12.6431 12.3595 12.4765 12.5262L2.57647 22.4262C2.27647 22.7262 1.92647 22.8679 1.52647 22.8512C1.12647 22.8345 0.759805 22.6929 0.426472 22.4262Z" fill="black"/>
</svg>
