<?xml version="1.0" encoding="utf-8"?><!-- Uploaded to: SVG Repo, www.svgrepo.com, Generator: SVG Repo Mixer Tools -->
<svg width="800px" height="800px" viewBox="0 0 17 17" id="meteor-icon-kit__solid-search-s" fill="none" xmlns="http://www.w3.org/2000/svg"><path fill-rule="evenodd" clip-rule="evenodd" d="M4.46655 10.4121C3.85368 9.4204 3.5 8.2515 3.5 7C3.5 3.41015 6.4101 0.5 10 0.5C13.5899 0.5 16.5 3.41015 16.5 7C16.5 10.5899 13.5899 13.5 10 13.5C8.7485 13.5 7.5796 13.1463 6.5879 12.5335L3.06066 16.0607C2.47487 16.6464 1.52513 16.6464 0.93934 16.0607C0.35355 15.4749 0.35355 14.5251 0.93934 13.9393L4.46655 10.4121zM10 10.5C11.933 10.5 13.5 8.933 13.5 7C13.5 5.067 11.933 3.5 10 3.5C8.067 3.5 6.5 5.067 6.5 7C6.5 8.933 8.067 10.5 10 10.5z" fill=""/></svg>